<svg xmlns="http://www.w3.org/2000/svg" viewBox="0 0 256.68 165.85"><defs><style>.cls-1{fill:#fff;}.cls-2{fill:#00ae76;}.cls-3{fill:#00e89d;}.cls-4{fill:#1b005b;}</style></defs><title>Asset 11</title><g id="Layer_2" data-name="Layer 2"><g id="Layer_2-2" data-name="Layer 2"><path class="cls-1" d="M163.44,36c6.19-6.6,12.31-15,20.75-18.71,6.94-3.08,14.9-4.43,22.21-6.42A1.5,1.5,0,0,0,205.61,8c-7.72,2.1-16.22,3.5-23.47,6.94-8.45,4-14.55,12.28-20.82,19-1.32,1.41.8,3.54,2.12,2.12Z"/><path class="cls-2" d="M253.51,88.31c0,33.73-56,61.08-125.19,61.08S3.13,122,3.13,88.31c0-.27,0-.53,0-.8.51,1.36,2.17,2.58,4.75,3.69,5.68,3.5,16.25,6.65,30.33,9.2,22.76,4.12,54.72,6.68,90.1,6.68s67.34-2.56,90.1-6.68c14.08-2.55,24.64-5.7,30.33-9.2,2.58-1.11,4.24-2.33,4.75-3.69C253.51,87.78,253.51,88,253.51,88.31Z"/><path class="cls-1" d="M250.51,88.31c-.21,14.83-11.59,26.23-23.26,33.87-17.07,11.19-37.33,17.21-57.28,20.72a244.59,244.59,0,0,1-75.23,1.27c-20.76-2.86-41.88-8.35-60.18-18.82C20.81,117.48,5.82,104.83,6.14,87.51L.55,89c2.76,5,10.76,7.44,15.87,9.17A160.59,160.59,0,0,0,41.3,104a457.47,457.47,0,0,0,51.2,5.21c38.79,2,78.23,1.35,116.72-4.25a195.16,195.16,0,0,0,28.31-5.87c5.75-1.74,15.45-4.41,18.56-10l-5.59-1.52v.8c.08,3.85,6.08,3.86,6,0v-.8c-.06-2.9-4.12-4.18-5.59-1.51-1.16,2.09-5.08,3.51-7.25,4.48a70.91,70.91,0,0,1-10.61,3.61,203.7,203.7,0,0,1-23.35,4.73,470.62,470.62,0,0,1-49.16,4.53c-35.69,1.66-71.86,1-107.32-3.64A238.68,238.68,0,0,1,26.69,94.9a97.84,97.84,0,0,1-11.14-3.36C12.8,90.49,7.2,88.65,5.73,86S.2,84.61.14,87.51c-.29,15.71,10.35,28.38,22.39,37.2,17.63,12.93,39.68,19.79,61,23.69a251.2,251.2,0,0,0,78.36,1.78c22.6-3,45.7-9,65.38-20.9,14.73-8.89,29-22.62,29.28-41C256.57,84.44,250.57,84.44,250.51,88.31Z"/><path class="cls-3" d="M253.67,86.39a4.28,4.28,0,0,1-.17,1.12h0c-.51,1.81-2.17,3.42-4.75,4.89-5.69,4.64-16.25,8.81-30.33,12.19-22.76,5.46-54.72,8.86-90.1,8.86s-67.34-3.4-90.1-8.86C24.14,101.21,13.57,97,7.89,92.4c-2.58-1.47-4.24-3.08-4.75-4.89h0A4.28,4.28,0,0,1,3,86.39c.16-2.51,2.49-3.62,5.26-5.31,10.28-6.3,34-11.48,64.79-14.34a3.79,3.79,0,0,0-.2,1.24c0,8.11,24.85,14.68,55.5,14.68s55.5-6.57,55.5-14.68a3.79,3.79,0,0,0-.2-1.24c30.8,2.86,54.51,8,64.79,14.34C251.18,82.77,253.51,84.5,253.67,86.39Z"/><path class="cls-1" d="M250.78,85.59c-.55,3.51-5.84,6.07-9,7.75A77.44,77.44,0,0,1,227.9,98.9a212.69,212.69,0,0,1-29.73,6.61c-24,3.81-48.49,5.06-72.79,4.93-23.6-.13-47.34-1.56-70.62-5.55a186.26,186.26,0,0,1-29.84-7.25A62.52,62.52,0,0,1,12.8,92.19a36.34,36.34,0,0,1-5.43-3.75c-2.65-2.48.58-3.78,3-5.17,7.12-4,15.41-6,23.33-7.76A323,323,0,0,1,73,69.74l-2.9-3.8c-1.35,8.46,7.93,12.13,14.57,14.27,13.88,4.47,29.15,5.45,43.63,5.45s29.75-1,43.63-5.45c6.64-2.14,15.92-5.81,14.57-14.27l-2.9,3.8A314.65,314.65,0,0,1,225,76,121.85,121.85,0,0,1,239,80c3.09,1.12,10.83,3.69,11.78,7.17,1,3.73,6.8,2.15,5.79-1.59C254.14,76.67,238,73.1,230.45,71.14c-15.3-4-31.12-5.91-46.83-7.4-2.13-.2-3.17,2.07-2.89,3.8.8,5-13.52,7.86-16.55,8.57-11.7,2.73-23.87,3.55-35.86,3.55-11.76,0-23.69-.8-35.18-3.4-3.09-.69-18.06-3.58-17.23-8.72.28-1.73-.76-4-2.89-3.8a347.67,347.67,0,0,0-39.49,5.68c-8.4,1.79-17.07,3.91-24.73,7.9-3,1.57-7.33,3.61-8.47,7.12-1.32,4,1.57,7.43,4.61,9.65,8.62,6.3,18.62,9.81,28.89,12.5,24.42,6.38,50.07,8.62,75.22,9.52a487.6,487.6,0,0,0,83-3.69c13.15-1.78,26.38-4.12,39-8.23a71.25,71.25,0,0,0,16.27-7.12c3.81-2.41,8.48-5.06,9.24-9.89C257.15,83.41,251.37,81.78,250.78,85.59Z"/><path class="cls-4" d="M183.82,68c0,8.11-24.85,14.68-55.5,14.68S72.82,76.09,72.82,68a3.79,3.79,0,0,1,.2-1.24,4.89,4.89,0,0,1,.58-1.23c7.46-28.38,29.13-48.91,54.72-48.91S175.58,37.13,183,65.51a5.26,5.26,0,0,1,.58,1.23A3.79,3.79,0,0,1,183.82,68Z"/><path class="cls-1" d="M180.82,68c-.28,4.36-11,6.68-14,7.49-10.06,2.67-20.55,3.68-30.92,4.06a187.33,187.33,0,0,1-34-1.65C94.42,76.77,86,75.41,79.42,71.54c-2.09-1.22-3.58-2.12-3.23-4.51.69-4.61,3.09-9.73,5.08-13.92a65.41,65.41,0,0,1,16-21.46c13-11.34,31.09-15.26,47.34-9A54.41,54.41,0,0,1,167.47,40.2c6.18,7.91,11.86,18.57,13.46,28.58.61,3.8,6.39,2.19,5.79-1.6-1.7-10.55-7.84-21.94-14.3-30.32A61,61,0,0,0,149.9,18.43C132.06,10.25,111.6,13,96.12,24.9a69.38,69.38,0,0,0-20,25.18,104.76,104.76,0,0,0-5.65,15.14,7.75,7.75,0,0,0,1.39,7.84c4.58,5.67,13.67,7.67,20.4,9.14a170.74,170.74,0,0,0,38,3.45c13.49-.12,27.57-1.16,40.56-5.08,6.06-1.83,15.55-5,16-12.59C187.07,64.12,181.07,64.14,180.82,68Z"/><circle class="cls-1" cx="205.09" cy="9.07" r="7.57"/><path class="cls-1" d="M211.16,9.07c-.42,7.78-12.14,7.85-12.14,0s11.72-7.78,12.14,0c.11,1.92,3.11,1.93,3,0C213.9,4.15,210.22,0,205.09,0A9.17,9.17,0,0,0,196,9.07a9.16,9.16,0,0,0,8.66,9.05c5.29.24,9.21-4,9.48-9C214.27,7.14,211.27,7.15,211.16,9.07Z"/><path class="cls-1" d="M101.8,43.52a25.49,25.49,0,0,1,9.34-8.06c1.72-.88.2-3.47-1.52-2.6A28.66,28.66,0,0,0,99.21,42c-1.14,1.56,1.46,3.05,2.59,1.51Z"/><path class="cls-1" d="M117.27,30h0l.74-1.29h0l1.16-.15h0a1.52,1.52,0,1,1-.4-.06,1.52,1.52,0,0,0-1.5,1.5Z"/><path class="cls-1" d="M69.12,142.62l-11.54,20a1.5,1.5,0,0,0,2.59,1.51l11.54-20a1.5,1.5,0,0,0-2.59-1.51Z"/><path class="cls-1" d="M181.58,145.13l11.54,20a1.5,1.5,0,0,0,2.59-1.51l-11.54-20a1.5,1.5,0,0,0-2.59,1.51Z"/></g></g></svg>