<svg xmlns="http://www.w3.org/2000/svg" viewBox="0 0 331.18 435.43"><defs><style>.cls-1{fill:#00e89d;}.cls-2{fill:#fff;}</style></defs><title>Asset 9</title><g id="Layer_2" data-name="Layer 2"><g id="Layer_2-2" data-name="Layer 2"><circle class="cls-1" cx="147.57" cy="214.6" r="143.34"/><path class="cls-2" d="M200.62,343C147,364.58,84.51,351.21,45.2,308.46s-47.54-107.68-20.26-159,85.73-81.16,143.32-72.24,104.38,53.69,115.67,111c11.05,56.06-15.08,115-63.81,144.78a142.46,142.46,0,0,1-19.5,9.94c-5.28,2.19-3,10.9,2.39,8.68,56.63-23.47,94.41-80.07,92.37-141.72-2.05-62-43.87-117.23-102.88-136.16S67.06,76.08,29.62,125.49C-7.67,174.69-10,244.16,24,295.75c33.53,51,96.87,76.59,156.41,63A149.39,149.39,0,0,0,203,351.63C208.31,349.49,206,340.78,200.62,343Z"/><path class="cls-2" d="M119.55,72.57c-4.71-8.35-53-96.69-70.15-66.19C46.18,12.11,46,19.5,46.16,25.89c.2,10.19,1.76,20.38,3.59,30.4,5,27.42,12.84,54.34,21.37,80.84a1339.65,1339.65,0,0,0,67.45,168.52c12.07,25.19,24.93,50.09,39.49,74a331.29,331.29,0,0,0,20.4,30.1c5.21,6.73,10.79,13.49,17.73,18.52,4.61,3.33,10.9,6.08,16.33,2.89s6.81-10.38,7.37-16.15c1-10.65-.56-21.59-2.25-32.08A465,465,0,0,0,227,335.5c-1.5-5.58-10.19-3.21-8.68,2.4,6,22.21,12.21,45.44,12.77,68.59.12,4.88.57,12.1-2.5,16.23a3.64,3.64,0,0,1-1.23.82c-1.38.07-3.2-.81-4.9-1.88-5.88-3.69-10.64-9.54-14.95-14.87a273.31,273.31,0,0,1-19-27.32c-13.31-21.28-25.11-43.52-36.22-66a1339.83,1339.83,0,0,1-64.27-154c-8.24-23.72-15.83-47.71-22.12-72C60.58,66.64,54.81,44.57,55.15,22.92a35.42,35.42,0,0,1,1.18-9.84,7.52,7.52,0,0,1,2-3.6c.34-.22.08-.41,1.28-.18a16.55,16.55,0,0,1,2,.65,26.16,26.16,0,0,1,7,5.07c7.4,6.8,13.47,15.05,19.18,23.27,8.67,12.49,16.46,25.58,23.92,38.82,2.85,5,10.62.52,7.78-4.54Z"/><path class="cls-2" d="M79,340.83c-4.68,8.45-54.57,95.73-19.78,94.59,6.57-.22,13-4,18.33-7.42a191.12,191.12,0,0,0,24-18.93c20.31-18.26,38.77-38.61,56.54-59.32A1335.62,1335.62,0,0,0,267.84,201.93c14.93-23.24,29.22-47,41.75-71.61A332.47,332.47,0,0,0,325,96c2.83-7.59,5.41-15.52,6.06-23.65.46-5.67-.5-12.39-5.95-15.44s-12.46-.48-17.68,2.06c-9.58,4.66-18.1,11.76-26.11,18.67a463.18,463.18,0,0,0-34.78,33.87c-4,4.21,2.38,10.59,6.36,6.36,15.78-16.74,32.32-34.28,51.74-46.9,4.34-2.82,9.71-6.32,14.86-6.44a1.93,1.93,0,0,1,1.65.54,10.37,10.37,0,0,1,1,5.13c-.06,6.77-2.39,13.6-4.58,19.92a270.94,270.94,0,0,1-13.47,31.06c-11,22.16-23.53,43.56-36.64,64.52a1334.11,1334.11,0,0,1-99.11,137.82C152.46,342.94,136,362,118.47,380.07c-14.51,15-29.89,31-48,41.72a36.39,36.39,0,0,1-9,4.2,9.26,9.26,0,0,1-2.75.44c-.71,0-1.46-.25-1.27-.16-.71-.35-1.21-1.13-1.5-3.06a26.08,26.08,0,0,1,.6-8.58c2-10.08,5.9-19.86,10-29.22,6-13.69,13-27,20.21-40,2.81-5.07-5-9.62-7.77-4.54Z"/></g></g></svg>