<svg xmlns="http://www.w3.org/2000/svg" viewBox="0 0 279.43 279.5"><defs><style>.cls-1{fill:#ffb900;}.cls-2{fill:#fff;}.cls-3{fill:#bf8b00;}</style></defs><title>Asset 8</title><g id="Layer_2" data-name="Layer 2"><g id="Layer_2-2" data-name="Layer 2"><path class="cls-1" d="M139.75,4.5A135.26,135.26,0,0,1,247,222.12V122.47a12.21,12.21,0,0,0-24.41,0v8.9a12.21,12.21,0,0,1-24.41,0v-5.64a10.78,10.78,0,0,0-.1-1.52,11.09,11.09,0,0,0,.1-1.52V66.07a12.21,12.21,0,0,0-24.41,0v56.62a12.93,12.93,0,0,0,.1,1.52,12.52,12.52,0,0,0-.1,1.52V172a12.21,12.21,0,1,1-24.41,0V159.36a12.36,12.36,0,0,0-.42-3.17V122.47a12.21,12.21,0,0,0-24.41,0v8.9a12.2,12.2,0,0,1-24.4,0v-5.64a12.52,12.52,0,0,0-.1-1.52,12.93,12.93,0,0,0,.1-1.52V66.07a12.21,12.21,0,0,0-24.42,0v56.62a11.1,11.1,0,0,0,.11,1.52,10.77,10.77,0,0,0-.11,1.52V172a12.21,12.21,0,1,1-24.41,0V159.36a12.2,12.2,0,1,0-24.4,0v55A135.25,135.25,0,0,1,139.75,4.5Z"/><path class="cls-2" d="M139.75,9A130.78,130.78,0,0,1,270,151.68a132,132,0,0,1-26.84,68.17l8.39,2.27V138.8c0-11.52,2.55-27.81-11.65-32.24-11.61-3.62-21.59,5.59-21.76,17-.06,3.62.83,8.46-1.05,11.73-3.51,6.07-12.9,4.32-14.24-2.46-.94-4.81-.12-10.42-.12-15.37V69.91c0-7.49-1.56-14.66-8.83-18.55-11.27-6-24.06,2.5-24.58,14.72-.2,4.78,0,9.6,0,14.38,0,14.06-.15,28.14,0,42.2s0,28.1,0,42.14c0,6.23.21,17.4-9.75,14.66-8.39-2.31-5.28-14.5-5.71-20.9s-.37-13.13-.37-19.72c0-6.39,1.06-13.88-.44-20.18-2.9-12.15-18.43-17-27.62-8.42-3.79,3.54-5.27,8.22-5.35,13.28-.06,3.59.84,8.49-1,11.73-3.54,6.05-12.9,4.33-14.23-2.46-.63-3.2-.16-7-.12-10.2,0-5.21,0-10.42,0-15.63,0-13.76.84-27.81,0-41.55-.78-12.22-14.22-20.13-25.1-13.76-7,4.09-8.28,11.18-8.28,18.52v82.18c0,6.41.38,13,0,19.35-.29,5.05-4.42,9.22-9.74,7.76-4.93-1.36-5.67-5.82-5.67-10.16,0-9.1.88-19-8.26-24.36-11.26-6.59-24.62,2-25.14,14.42-.57,13.72,0,27.59,0,41.32v13.67l8.39-2.27A130.73,130.73,0,0,1,81.87,22.47,131.39,131.39,0,0,1,139.75,9c5.79,0,5.8-9,0-9A139.75,139.75,0,0,0,.05,143.26a140.8,140.8,0,0,0,23,73.36c2.38,3.65,8.38,2.36,8.38-2.27v-40c0-5-.35-10,0-15,.42-5.95,6.86-10.1,12.15-6.29,3.67,2.64,3.25,6.75,3.25,10.73,0,9.28,0,19,9.93,23.44,11.2,5,23-3.5,23.48-15.26.57-13.66,0-27.46,0-41.14V74c0-5.5-1.28-13.43,5.67-15.34,9.08-2.5,9.75,7,9.75,13v46.93c0,5.23-.67,10.83.33,16,2.36,12.07,17.12,17.56,26.76,9.86a17.26,17.26,0,0,0,6.31-13.34c.12-3.24-.51-6.8.12-10,1.35-6.78,10.74-8.52,14.24-2.46,1.33,2.31,1.05,5,1.05,7.59v24.17c0,5.77.42,11.45.42,17.23,0,3.85-.14,7.62,1.47,11.24a16.77,16.77,0,0,0,12.71,9.7c10.6,1.62,19-6.8,19.23-17,.18-6.54,0-13.1,0-19.63V71.34c0-1.7-.11-3.43,0-5.12.33-5.17,5.08-9.38,10.37-7.39,6.37,2.39,5,10.15,5,15.54v46.15c0,6.12-1,13.14,2,18.71,5.68,10.6,20.94,11.72,28.1,2.07,2.8-3.79,3.32-8,3.32-12.53,0-4.11-.84-9.19,2.71-12.17,5.18-4.34,12.25-.39,12.7,5.88.06.8,0,1.63,0,2.43v97.21c0,4.85,5.85,5.6,8.38,2.27a139.67,139.67,0,0,0-47.55-209.1A141.47,141.47,0,0,0,139.75,0C134,0,134,9,139.75,9Z"/><path class="cls-3" d="M185.94,53.84A12.19,12.19,0,0,1,198.15,66l0,56.62a12.79,12.79,0,0,1-.1,1.52,10.88,10.88,0,0,1,.1,1.52v5.64a12.2,12.2,0,0,0,24.4,0v-8.89a12.21,12.21,0,0,1,24.41,0l.06,99.65a135.83,135.83,0,0,1-48.78,39.66A134.94,134.94,0,0,1,139.82,275,135.36,135.36,0,0,1,27,214.42l0-55a12.2,12.2,0,1,1,24.4,0V172.1a12.21,12.21,0,0,0,24.41,0l0-46.31a10.78,10.78,0,0,1,.1-1.52,11.09,11.09,0,0,1-.1-1.52l0-56.62a12.21,12.21,0,0,1,24.42,0l0,56.61a10.88,10.88,0,0,1-.1,1.52,10.88,10.88,0,0,1,.1,1.52v5.64a12.2,12.2,0,0,0,24.4,0v-8.89a12.21,12.21,0,0,1,24.42,0l0,33.73a12.68,12.68,0,0,1,.42,3.16V172a12.21,12.21,0,0,0,24.42,0l0-46.31a11,11,0,0,1,.1-1.53,10.88,10.88,0,0,1-.1-1.52l0-56.61A12.2,12.2,0,0,1,185.94,53.84Z"/><path class="cls-2" d="M185.94,58.34c9.49.5,7.71,11.31,7.72,17.89l0,30.24c0,6.44-.06,12.89,0,19.32.06,5.11-.22,10,2.63,14.49a16.68,16.68,0,0,0,30.44-5.8c.77-3.95.06-8,.33-12,.52-7.72,11.09-11,14.65-3.35a12.38,12.38,0,0,1,.76,5.55l0,50,0,47.33,1.32-3.18c-35,45-95.4,63.28-149.21,43.67a130,130,0,0,1-48.46-31.42q-3.57-3.66-6.87-7.58c-2.19-2.61-4-6.36-6.57-8.56,1.14,1-2.19-3.21-1.31-.65,0-.08,0-.2,0-.28a8,8,0,0,1,0-1.83v-7l0-20.81V164.77c0-4.36-.64-9.39,3.81-12A7.79,7.79,0,0,1,46.71,158c.54,2.75.12,5.95.12,8.71,0,7.4.46,14.48,7.24,19.13a16.86,16.86,0,0,0,24.48-6.44c2.17-4.41,1.7-9.41,1.7-14.18,0-12.58-.18-25.18,0-37.77.24-20.19-1-40.59,0-60.76.51-10.11,14.6-11.05,15.42-.58.24,3.1,0,6.3,0,9.41l0,41c0,11.36-2.11,26.51,11.66,30.8a16.91,16.91,0,0,0,21.31-12.11c1.43-6-2.22-15.57,4.24-19.36a7.81,7.81,0,0,1,11.48,5.22,25.64,25.64,0,0,1,.13,4.8v20.7c0,4.58.21,9,.43,13.57.28,5.93-1,12.5,1.25,18.15a16.87,16.87,0,0,0,23.9,8.18c5.93-3.48,8.2-9.57,8.27-16.11.12-12.7,0-25.42,0-38.12l0-62.6c0-5.33.93-10.92,7.7-11.28,5.76-.32,5.79-9.32,0-9-11,.6-16.71,9-16.7,19.31l0,25.71,0,39.73,0,29.15c0,2.79.17,5.64,0,8.44-.35,6-6.62,10.56-12.15,6.62-4.11-2.94-3.27-8.19-3.27-12.61,0-3.42-.18-6.72-.42-10.09-.63-8.61,0-17.47,0-26.1,0-9.28-.7-19-11.07-22.71a16.89,16.89,0,0,0-17.89,4.34c-3.95,4.22-4.46,9.38-4.46,14.85,0,5.19.39,11.71-6.27,13-7.82,1.49-9.05-6.08-9.13-11.74-.08-5.85,0-11.72,0-17.58l0-30c0-6.13,1.1-13.9-1.26-19.74C98,46.46,78.52,46.17,72.65,59.34c-2.53,5.7-1.46,13.35-1.46,19.42,0,15.75,0,31.52,0,47.26,0,15.13.9,30.52,0,45.62-.33,5.79-5.91,10.42-11.59,7.11-4.71-2.75-3.82-8.39-3.83-13,0-4.43.38-9-1.48-13.12a16.8,16.8,0,0,0-15.89-9.89c-10.77.43-16,9.61-16,19.32l0,26.35c0,8.12-.13,16.26,0,24.39.08,4.6,3.36,8,6.08,11.53a139.68,139.68,0,0,0,217.2,6.45c2.52-2.94,5.69-5.76,5.82-9.77.08-2.11,0-4.24,0-6.35l0-24.38,0-57.52c0-4.05.33-8.27-.16-12.29-1.76-14.41-20.49-19.83-29.59-8.44-3.55,4.43-3.67,9.45-3.67,14.82S217.62,139,210.4,139c-9.83,0-7.71-12.62-7.71-19.2l0-51.61c0-10.19-6-18.29-16.71-18.86C180.15,49,180.17,58,185.94,58.34Z"/></g></g></svg>