<svg xmlns="http://www.w3.org/2000/svg" viewBox="0 0 391.18 248.79"><defs><style>.cls-1{fill:#f0f;}.cls-2{fill:#fff;}</style></defs><title>Asset 6</title><g id="Layer_2" data-name="Layer 2"><g id="Layer_2-2" data-name="Layer 2"><circle class="cls-1" cx="195.73" cy="124.39" r="120"/><path class="cls-2" d="M311.23,124.39c-.28,47.94-30.56,92.12-75.87,108.54-45.73,16.56-97.75,2.28-128.79-35.07C75.7,160.7,71.85,106.3,96.67,65S171.14,1.51,218.55,11.14c46.85,9.52,83.67,47.94,91.29,95.12a118.35,118.35,0,0,1,1.39,18.13c0,5.79,9,5.81,9,0-.3-51.89-33.05-99-81.85-117S132.79,4.92,99.79,45.07,62,143.55,88.9,188.36s80.15,68.21,131.38,58.1c50.39-9.94,90.78-52.08,98.45-102.89a133.89,133.89,0,0,0,1.5-19.18C320.26,118.6,311.26,118.6,311.23,124.39Z"/><path class="cls-2" d="M77.32,100.35c-9.11,1.15-91.92,9.59-75.06,34,3.1,4.49,8.63,7,13.5,9a143.85,143.85,0,0,0,24.59,7.13c22.6,4.85,45.75,7.34,68.77,9.19a1109.93,1109.93,0,0,0,155.49,1.24,695.88,695.88,0,0,0,70-7.35,256.22,256.22,0,0,0,30.89-6.67c6.33-1.86,13-4,18.56-7.76,4.12-2.78,7.82-6.82,7-12.14s-6-9-10.56-11.32c-8.18-4.19-17.32-6.57-26.23-8.59-13.23-3-26.68-5-40.14-6.7-5.73-.72-5.68,8.29,0,9,19,2.4,38.86,5.05,56.88,11.89,3.61,1.37,8.9,3.45,10.93,6.51a1.45,1.45,0,0,1,.26.83,9.85,9.85,0,0,1-3,2.94c-4.76,3.27-10.64,5-16.12,6.66a240.91,240.91,0,0,1-26.72,6,620.4,620.4,0,0,1-63.19,7.17,1128.45,1128.45,0,0,1-139.33,1c-20.67-1.11-41.34-2.77-61.86-5.54C54.35,144.36,35.64,141.8,19.05,135a31.93,31.93,0,0,1-7.65-4.07,6.31,6.31,0,0,1-2.17-2.51c0,.17.1-.41.08-.39a10.94,10.94,0,0,1,1.18-1.41,21.88,21.88,0,0,1,5.76-3.6c7.5-3.65,15.93-5.65,24-7.47,12.22-2.74,24.62-4.64,37-6.21,5.67-.71,5.74-9.72,0-9Z"/></g></g></svg>