<svg xmlns="http://www.w3.org/2000/svg" viewBox="0 0 157.91 261.51"><defs><style>.cls-1{fill:#f799dd;}.cls-2{fill:#fff;}.cls-3{fill:#f466cd;}</style></defs><title>Asset 4</title><g id="Layer_2" data-name="Layer 2"><g id="Layer_2-2" data-name="Layer 2"><path class="cls-1" d="M149,232.48H8.85c-6.2,0-8.16-6.72-2.6-8.93l1.11-.44c24.41-9.7,38.08-30.93,34.2-52.58a250.8,250.8,0,0,1-3.74-43.94C37.82,80.8,63.29,41.8,74.35,27,76.63,24,82.13,24,84.41,27c11.06,14.77,36.53,53.77,36.53,99.56a250,250,0,0,1-3.78,44.14c-3.91,21.71,9.79,43,34.27,52.73l.2.09C157.2,225.76,155.24,232.48,149,232.48Z"/><path class="cls-2" d="M149,229.48h-133c-2.27,0-4.88.36-7.13,0-1.94-.3-4-1.14-1.8-3,1.82-1.55,5.35-2.26,7.49-3.35a63.36,63.36,0,0,0,15.09-10.67c8-7.67,13.62-17.76,15.08-28.79.78-5.9,0-11.46-.93-17.28A234.61,234.61,0,0,1,41.26,142c-.9-15.61-.33-31,3.32-46.21C50,73.23,60.4,52,73.69,33c1-1.38,2-3.39,3.35-4.4,2.84-2.11,4.94.09,6.56,2.34q3.65,5,7,10.3a195.9,195.9,0,0,1,16,30.77,153.15,153.15,0,0,1,10.68,40.87c1.73,16,.65,32.56-1.56,48.44-1.67,12-3.43,22.53,1.42,34.14,4.39,10.47,12.42,19,22,25a66.71,66.71,0,0,0,8.73,4.61c.86.37,2.54.72,3.17,1.37,1.62,1.68.27,2.8-1.89,3-3.82.3-3.86,6.31,0,6,4.28-.33,8.67-2.66,8.87-7.49.24-5.81-5.78-7.28-9.93-9.33-12.26-6-22.92-16.23-26.86-29.6a42,42,0,0,1-.76-19.22c1.32-8,2.32-16,2.91-24,1.19-16.55.87-33-2.75-49.26C115.14,72.41,104,49.42,89.75,29.29,87.19,25.68,84.84,22,80,21.79s-7.58,2.82-10.22,6.48A203,203,0,0,0,53.27,55.44,179.36,179.36,0,0,0,38.79,94.18c-3.85,16.06-4.48,32.3-3.48,48.74.5,8.09,1.37,16.17,2.64,24.18,1.14,7.13,1.83,13.75-.1,20.83-3.66,13.43-14.09,23.8-26.25,30C7.45,220,.86,221.19.07,226.73c-.63,4.46,3,7.9,7.12,8.6,2.57.44,5.37.15,8,.15H57.34c30,0,60,.5,89.92,0H149C152.89,235.48,152.9,229.48,149,229.48Z"/><path class="cls-3" d="M94.89,187,83.2,255.5c-.68,4-8.72,4-9.37,0L62.58,187a2.24,2.24,0,0,1,0-.73L74.1,101.4c.56-4.11,8.85-4.11,9.4,0l11.4,84.87A2.69,2.69,0,0,1,94.89,187Z"/><path class="cls-2" d="M92,186.22l-11.26,66a7.43,7.43,0,0,1-.42,2.46c-1.48,1.95-3.12.58-3.73-.87-1.53-3.62-1.46-8.85-2.09-12.7l-7-42.88c-.63-3.84-1.43-7.7-1.9-11.56-.14-1.2-.15,1.3,0-.32.15-1.42.38-2.84.58-4.26l5.15-38,5.12-37.68c.14-1,0-2.8.51-3.73.55-1.08,2.54-2.34,3.6-1.2s1,7.23,1.18,8.82L88,157l2.82,21c.4,3,1.16,6.08,1.11,9.07-.07,3.86,5.93,3.86,6,0,0-2.9-.68-5.91-1.07-8.77L94.09,157.9,87.92,112c-.47-3.47-.76-7-1.4-10.47C85.31,95.05,75.6,92.7,72,98.72c-1.49,2.46-1.35,6.27-1.72,9l-2.7,19.84-6.28,46.27c-.52,3.77-1.21,7.55-1.54,11.33-.24,2.69.41,5.33.84,8l7.31,44.5,2.72,16.53c.83,5.06,4.59,8.33,10.09,7.05,4.95-1.16,5.44-5.08,6.15-9.23l3.3-19.35,7.19-42.16.46-2.68C98.42,184,92.64,182.42,92,186.22Z"/><path class="cls-3" d="M148,90.38a4.27,4.27,0,0,1,4.45,4.05v4.64a2.4,2.4,0,0,1-.42,1.34l-2.85,4.4h.07L125.5,142.16c-1.49,2.35-5.44,1.44-5.52-1.27l-1.16-36.08-.54-14.43Z"/><path class="cls-2" d="M147.17,93.28c5.52.81.72,8-.62,10a3,3,0,0,0,2.6,4.51h.07l-2.59-4.51-21.86,34.42a11.09,11.09,0,0,1-1.55,2.44c-.56.47.09.72-.26.3-.94-1.13-.21-6.79-.26-8.21l-.79-24.58c-.18-5.76-.41-11.52-.63-17.29l-3,3H148c3.86,0,3.86-6,0-6H118.28a3,3,0,0,0-3,3c.56,14.9,1,29.79,1.51,44.69.08,2.3-.3,5.31.49,7.55,1.66,4.68,7.72,4.87,10.58,1.36,4.13-5.08,7.27-11.38,10.77-16.89l13.19-20.77a3,3,0,0,0-2.6-4.51h-.07l2.59,4.51c2-3.08,3.63-5.31,3.68-9.08.05-4.81-1.18-8.95-6.66-9.75C145,86.94,143.36,92.72,147.17,93.28Z"/><path class="cls-3" d="M10.44,91.83a4.26,4.26,0,0,0-4.45,4v4.64a2.44,2.44,0,0,0,.41,1.34l2.86,4.4H9.18L32.9,143.6c1.49,2.35,5.45,1.45,5.53-1.27l1.16-36.08.54-14.42Z"/><path class="cls-2" d="M9.64,88.93c-5.43.8-6.75,4.94-6.65,9.75.07,3.79,1.66,6,3.68,9.09l2.59-4.52H9.18a3,3,0,0,0-2.59,4.52c7.79,12.27,15,25.13,23.48,37,2.17,3.05,6,4.38,9.18,1.87,2.32-1.83,2.18-4.49,2.27-7.13l.88-27.39q.33-10.14.73-20.25a3,3,0,0,0-3-3H10.44c-3.86,0-3.87,6,0,6H40.13l-3-3Q36.41,111,35.82,130.1c-.11,3.47-.27,6.93-.33,10.4,0,2,.17,1.87-.83.28-4-6.36-8.06-12.69-12.09-19l-10.8-17-2.59,4.51h.08a3,3,0,0,0,2.59-4.51c-1.37-2.11-6.17-9.21-.61-10C15,94.16,13.42,88.38,9.64,88.93Z"/><path class="cls-3" d="M94.89,59,83.2,102.2c-.68,2.52-8.72,2.51-9.37,0L62.58,59a.9.9,0,0,1,0-.46L74.1,5c.56-2.59,8.85-2.58,9.4,0L94.9,58.55A1.11,1.11,0,0,1,94.89,59Z"/><path class="cls-2" d="M92,58.23,87.18,76c-2.1,7.76-3.51,16.24-6.42,23.73-.11.28-.18,1.43-.44,1.63-.1.06-3.77-.49-3.72-.43-1.29-1.35-1.62-6.23-2.08-8l-7-27c-.64-2.47-1.41-4.93-1.93-7.42-.16-.73-.27,1.69,0,.32.23-1,.43-2,.64-3l5.21-24.2,5-23.43c.1-.44.15-1.82.47-2.16-.35.37,3.48-.1,3.7.07s.78,3.61,1,4.64l6.19,29,2.93,13.77c.29,1.35.6,2.7.86,4.06.08.4.24,2.06.26,1.43-.11,3.86,5.89,3.86,6,0,.06-2-.73-4.23-1.14-6.18L93.92,39.57,87.5,9.45c-.4-1.88-.53-4.19-1.41-5.92-2-4-9-4.39-12.54-2.21-2.21,1.38-2.45,3.42-3,5.73L68,19.28,61.36,49.94c-1.07,5-2.07,8.36-.79,13.26l7.74,29.72c1.86,7.13,2.23,15.48,12.08,14,4.12-.62,5.42-2.9,6.39-6.47l3.88-14.33,7.12-26.32C98.79,56.09,93,54.5,92,58.23Z"/><path class="cls-2" d="M113.19,233.93V257a1.5,1.5,0,0,0,3,0V233.93a1.5,1.5,0,0,0-3,0Z"/><path class="cls-2" d="M41.32,233.93V257a1.5,1.5,0,0,0,3,0V233.93a1.5,1.5,0,0,0-3,0Z"/></g></g></svg>