<svg xmlns="http://www.w3.org/2000/svg" viewBox="0 0 248.99 248.94"><defs><style>.cls-1{fill:#7f10bf;}.cls-2{fill:#fff;}.cls-3{fill:#a916ff;}</style></defs><title>Asset 5</title><g id="Layer_2" data-name="Layer 2"><g id="Layer_2-2" data-name="Layer 2"><path class="cls-1" d="M244.49,124.5A120,120,0,0,1,51.41,219.68h88.41a10.83,10.83,0,0,0,0-21.66h-7.89a10.83,10.83,0,0,1,0-21.65h5a10,10,0,0,0,1.35-.09,10.09,10.09,0,0,0,1.35.09h50.23a10.83,10.83,0,1,0,0-21.66H139.63a10.09,10.09,0,0,0-1.35.09,10,10,0,0,0-1.35-.09H95.84a10.83,10.83,0,0,1,0-21.66h11.25a10.88,10.88,0,0,0,2.81-.37h29.92a10.83,10.83,0,0,0,0-21.66h-7.89a10.83,10.83,0,0,1,0-21.65h5a10,10,0,0,0,1.35-.09,10.09,10.09,0,0,0,1.35.09h50.23a10.83,10.83,0,0,0,0-21.66H139.63a10.09,10.09,0,0,0-1.35.09,10,10,0,0,0-1.35-.09H95.84a10.83,10.83,0,0,1,0-21.66h11.25a10.83,10.83,0,1,0,0-21.65H58.3A120,120,0,0,1,244.49,124.5Z"/><path class="cls-2" d="M240,124.5a115.53,115.53,0,0,1-125.7,115.07,116.71,116.71,0,0,1-60.6-23.78l-2.28,8.39h74c10.32,0,24.48,2.22,28.8-10.22,3.67-10.55-4.5-20.1-15-20.44-3.09-.1-7.24.77-10.12-.65-6.43-3.18-3.17-11.46,3-12,11.32-1,23.23,0,34.58,0H186.5c6.79,0,13.19-1.48,16.81-8,5.77-10.35-2.27-22.17-13.45-22.69-3.93-.18-7.92,0-11.86,0q-19.12,0-38.26,0H103.42c-5.16,0-15.92,1-13.74-7.8,1.85-7.44,13.28-4.47,18.85-5,5.86-.51,11.9-.27,17.83-.27,5.45,0,12,.92,17.32-.49,10.89-2.87,15.18-16.9,7.41-25.22-3.17-3.4-7.29-4.8-11.85-5-3.47-.12-8.4,1-11.31-1.41-5-4.1-1.33-10.75,4.22-11.24,2.52-.23,5.19,0,7.71,0h15.2c11.9,0,24.31,1,36.16-.09a15.46,15.46,0,0,0,11.42-23.7c-3.91-6-10.21-6.87-16.68-6.87H114.4c-6,0-12.12.46-18.06,0-3.91-.31-7.25-2.71-6.74-7.07.61-5.21,5.32-5.59,9.46-5.59,8.67,0,17.85.22,22-9.14,4.59-10.3-3.26-21-14-21.51-12.18-.56-24.51,0-36.7,0H58.3l2.28,8.38a115.49,115.49,0,0,1,167.7,45.47A116,116,0,0,1,240,124.5c0,5.79,9,5.8,9,0A124.5,124.5,0,0,0,121,.05,125.41,125.41,0,0,0,56,20.51c-3.64,2.38-2.35,8.39,2.27,8.39H94.15c4.24,0,8.69-.41,12.92,0,5,.48,8.54,5.93,4.94,10.33-2.58,3.16-7.43,2.32-11,2.32-8.62,0-17.4,1.73-20,11.47-2.61,9.9,5.17,18.78,15,19.19,12.27.51,24.66,0,36.94,0h49.84c4.64,0,11.84-1.19,13.27,4.86,1.91,8-6.85,7.8-11.9,7.8H143c-4.48,0-9.21-.51-13.62.24a15.46,15.46,0,0,0-10.21,23.54c5.14,7.88,12.8,6.12,20.65,6.87,6.19.59,9,8.93,2.82,12-2,1-4.47.66-6.59.66H114.39c-5.27,0-10.48.37-15.76.37-9.24,0-18.12,4.92-18.12,15.33,0,9,7.51,15.16,16.09,15.33,5.93.12,11.87,0,17.8,0h70.37c1.54,0,3.15-.13,4.69,0,4.57.39,8.45,4.36,6.08,9.15s-9.2,3.51-13.52,3.51c-13.48,0-27,.14-40.44,0-5.13-.05-11.06-.78-15.83,1.34a15.46,15.46,0,0,0-4.19,25.26c3.25,3,7.31,4,11.61,4.05,3.31,0,7.9-.84,10.66,1.41,4.85,4,1.51,10.72-4,11.25-.77.07-1.58,0-2.35,0H51.41c-4.84,0-5.61,5.85-2.27,8.38A124.42,124.42,0,0,0,235.46,181,126.16,126.16,0,0,0,249,124.5C249,118.71,240,118.7,240,124.5Z"/><path class="cls-3" d="M200.72,165.47a10.83,10.83,0,0,1-10.82,10.84l-50.23,0a10.09,10.09,0,0,1-1.35-.09,10,10,0,0,1-1.35.1h-5A10.83,10.83,0,0,0,132,198h7.89a10.83,10.83,0,0,1,0,21.66l-88.41.06a120.55,120.55,0,0,1-35.19-43.29,118.1,118.1,0,0,1-7.93-21.65A120.09,120.09,0,0,1,58.24,24.43l48.79,0a10.83,10.83,0,1,1,0,21.66H95.79a10.83,10.83,0,1,0,0,21.66l41.09,0a8.59,8.59,0,0,1,1.35.08,10.09,10.09,0,0,1,1.35-.09l50.23,0a10.83,10.83,0,1,1,0,21.66l-50.23,0a10.09,10.09,0,0,1-1.35-.09,10,10,0,0,1-1.35.1h-5a10.83,10.83,0,0,0,0,21.65h7.89a10.83,10.83,0,0,1,0,21.66l-29.92,0a10.88,10.88,0,0,1-2.81.37H95.85a10.83,10.83,0,1,0,0,21.66l41.09,0a8.59,8.59,0,0,1,1.35.08,10.09,10.09,0,0,1,1.35-.09l50.23,0A10.82,10.82,0,0,1,200.72,165.47Z"/><path class="cls-2" d="M196.22,165.47c-.5,8.13-10.5,6.34-16.11,6.35H153.73l-16.76,0c-4.23,0-8.51-.26-12.36,1.88a15.33,15.33,0,0,0,2.27,27.88c4.13,1.43,8.37.56,12.62.88,6.63.51,9.69,9.67,2.53,12.25a12.44,12.44,0,0,1-4.34.41l-44.5,0-41.71,0,3.18,1.32c-39-30.36-55.49-82.29-39.51-129.38A114.49,114.49,0,0,1,42.84,42.81c4.6-4.6,10-8.13,14.72-12.48,1.89-1.73.65-1.29,1.09-1.4a7.07,7.07,0,0,1,1.38,0c2-.12,4.15,0,6.21,0h35.59c3.69,0,8.17-.71,10.5,2.9,2.87,4.46-.53,9.28-5.29,9.75-2.46.24-5.09,0-7.56,0-7.2,0-13.85,1.52-17.4,8.57a15.41,15.41,0,0,0,7.54,20.75c3.86,1.72,8.12,1.34,12.24,1.34,11.19,0,22.4-.18,33.59,0,17.88.25,35.88-.77,53.75,0,8.48.35,9.22,11.82.62,12.66-3.06.3-6.3,0-9.36,0l-35.43,0c-9.89,0-22.21-1.83-27.09,9.15a15.43,15.43,0,0,0,8.88,20.62c5.13,1.78,14.18-1.37,17.9,3.2,3.59,4.39.08,9.81-4.89,10.34a33.87,33.87,0,0,1-3.77,0H117.67c-3.88,0-7.65.23-11.5.38-5.79.22-12.38-1.07-17.68,1.89a15.53,15.53,0,0,0-5.4,21.91c3.36,5.14,8.84,6.82,14.65,6.86,11.29.08,22.59,0,33.88,0l54.36,0c4.63,0,9.85.13,10.24,6.32.36,5.76,9.37,5.8,9,0-.61-9.81-7.9-15.26-17.28-15.32-7.39,0-14.79,0-22.18,0l-35.23,0-25.87,0c-2.71,0-5.46.11-8.17,0-4.94-.2-9-4.93-5.93-9.74,2.5-3.89,7.93-2.92,11.9-2.92,2.81,0,5.53-.21,8.3-.38,7.88-.49,15.93,0,23.82,0,8.64,0,17.5-1.67,20.07-11.48a15.41,15.41,0,0,0-5.47-15.93c-4-3.12-8.49-3.26-13.31-3.25s-11.71-.92-10.1-7.79c1.28-5.47,6.86-4.81,11.14-4.86,5.43-.07,10.88,0,16.32,0h26.42c5.58,0,12.5.92,17.55-1.9,11.55-6.43,9.84-24.2-2.89-28.08-5.12-1.56-11.52-.68-16.78-.68-13.6,0-27.24.15-40.83,0s-27.21,1-40.61,0C90.57,62.79,86.7,56,91.79,52c3-2.39,8.49-1.42,12-1.42,4.57,0,8.81-.32,12.58-3.26a15.42,15.42,0,0,0,5.46-15.93c-2.31-8.79-10.2-11.47-18.27-11.46H79.67c-6.82,0-13.7-.24-20.52,0-4.39.16-8,3.91-11.34,6.51A123.43,123.43,0,0,0,29.4,44.16a124.46,124.46,0,0,0,14,174.73c2.68,2.29,5.29,5.17,8.93,5.32,1.88.08,3.77,0,5.65,0l21.63,0,50.87,0c3.57,0,7.24.25,10.8-.09,13-1.25,18.54-17.62,9-26.53-3.76-3.51-8.45-4-13.33-4-4.65,0-11.25.18-11.25-6.32,0-8.35,11.49-6.33,17.12-6.34,15.12,0,30.25.1,45.37,0,9.32-.08,16.48-5.65,17.07-15.34C205.58,159.69,196.58,159.71,196.22,165.47Z"/></g></g></svg>