<svg xmlns="http://www.w3.org/2000/svg" viewBox="0 0 1366 768"><defs><style>.cls-1{fill:#1b005b;}.cls-2{fill:#fff;}.cls-2,.cls-3,.cls-4{opacity:0.2;}.cls-3{fill:#16f5ff;}.cls-4{fill:#ec00ab;}</style></defs><title>background</title><g id="Layer_2" data-name="Layer 2"><g id="Layer_2-2" data-name="Layer 2"><rect class="cls-1" width="1366" height="768"/><path class="cls-2" d="M264.74,125.08a21.51,21.51,0,0,1-21.5,21.51H143.45a21.67,21.67,0,0,1-2.68-.17,21.71,21.71,0,0,1-2.69.17h-9.92a21.51,21.51,0,1,0,0,43h15.66a21.51,21.51,0,1,1,0,43H0v-43H44.4a21.51,21.51,0,0,0,0-43H0v-129H78.81a21.51,21.51,0,1,1,0,43H56.46a21.51,21.51,0,0,0,0,43h81.62a21.71,21.71,0,0,1,2.69.17,21.67,21.67,0,0,1,2.68-.17h99.79A21.51,21.51,0,0,1,264.74,125.08Z"/><path class="cls-3" d="M294.67,39.05a21.5,21.5,0,0,1-21.5,21.5H173.38a21.51,21.51,0,0,1,0-43h19.9A21.52,21.52,0,0,0,214.42,0h37.67a21.5,21.5,0,0,0,21.08,17.54h.05A21.5,21.5,0,0,1,294.67,39.05Z"/><path class="cls-3" d="M629.66,211.11a21.5,21.5,0,0,1-21.51,21.51H465.37a21.51,21.51,0,0,0-.06,43h.06a21.51,21.51,0,0,1-.06,43H365.53a21.51,21.51,0,1,1,0-43h19.89a21.51,21.51,0,0,0,0-43H223.51a21.51,21.51,0,0,1,0-43H366.3a21.51,21.51,0,0,0,0-43H366a21.51,21.51,0,1,1,0-43h99.77a21.51,21.51,0,0,1,0,43H446.25a21.51,21.51,0,1,0,0,43h161.9A21.49,21.49,0,0,1,629.66,211.11Z"/><path class="cls-2" d="M44,146.59H38.66a21.71,21.71,0,0,0,2.69-.17A21.71,21.71,0,0,0,44,146.59Z"/><path class="cls-4" d="M795.35,39.05a21.5,21.5,0,0,1-21.51,21.5H670.24a21.51,21.51,0,1,0,0,43h24a21.51,21.51,0,0,1,0,43H564.13a21.51,21.51,0,1,1,0-43h22.35a21.51,21.51,0,0,0,0-43H504.86a19.93,19.93,0,0,1-2.69-.17,19.88,19.88,0,0,1-2.68.17H399.71a21.51,21.51,0,1,1,0-43h99.78a21.67,21.67,0,0,1,2.68.17,21.71,21.71,0,0,1,2.69-.17h9.92A21.52,21.52,0,0,0,535.92,0H577.4a21.52,21.52,0,0,0,21.14,17.54h175.3A21.5,21.5,0,0,1,795.35,39.05Z"/><path class="cls-4" d="M19.22,491.61H0v-43H19.22a21.51,21.51,0,0,1,0,43Z"/><path class="cls-4" d="M205.15,556.13a21.51,21.51,0,0,1-21.51,21.51H83.86a19.78,19.78,0,0,1-2.68-.17,19.93,19.93,0,0,1-2.69.17H68.57a21.51,21.51,0,0,0,0,43H84.23a21.51,21.51,0,0,1,0,43H0v-49.3a21.45,21.45,0,0,0,6.32-15.23A21.45,21.45,0,0,0,0,583.92V534.63H78.49a19.93,19.93,0,0,1,2.69.17,19.78,19.78,0,0,1,2.68-.17h99.78A21.51,21.51,0,0,1,205.15,556.13Z"/><path class="cls-3" d="M377.93,384.07a21.5,21.5,0,0,1-21.51,21.5H213.63a21.51,21.51,0,0,0-.06,43h.06a21.51,21.51,0,0,1-.06,43H113.79a21.51,21.51,0,1,1,0-43h19.9a21.51,21.51,0,0,0,0-43H0v-43H114.57a21.51,21.51,0,0,0,0-43h-.36a21.51,21.51,0,1,1,0-43H214a21.51,21.51,0,1,1,0,43H194.51a21.51,21.51,0,1,0,0,43H356.42A21.5,21.5,0,0,1,377.93,384.07Z"/><path class="cls-2" d="M570.07,642.17a21.51,21.51,0,0,1-21.51,21.51H405.77a21.51,21.51,0,0,0,0,43h0a21.51,21.51,0,0,1,0,43H305.93a21.51,21.51,0,0,1,0-43h19.9a21.51,21.51,0,1,0,0-43H163.92a21.51,21.51,0,1,1,0-43H306.71a21.51,21.51,0,1,0,0-43h-.35a21.51,21.51,0,1,1,0-43h99.77a21.51,21.51,0,1,1,0,43H386.65a21.51,21.51,0,0,0,0,43H548.56A21.51,21.51,0,0,1,570.07,642.17Z"/><path class="cls-4" d="M318.6,470.1a21.52,21.52,0,0,1,21.51-21.51h99.78a21.71,21.71,0,0,1,2.69.17,21.71,21.71,0,0,1,2.69-.17h9.92a21.51,21.51,0,0,0,0-43H439.53a21.51,21.51,0,1,1,0-43H634.6a21.51,21.51,0,1,1,0,43H539a21.51,21.51,0,0,0,0,43h175.3a21.51,21.51,0,0,1,0,43H610.64a21.51,21.51,0,0,0,0,43h24a21.51,21.51,0,1,1,0,43H504.53a21.51,21.51,0,0,1,0-43h22.35a21.51,21.51,0,0,0,0-43H445.27a21.71,21.71,0,0,1-2.69-.17,21.71,21.71,0,0,1-2.69.17H340.11A21.52,21.52,0,0,1,318.6,470.1Z"/><path class="cls-2" d="M1047.4,297.9a21.52,21.52,0,0,1-21.51,21.51H926.11a21.37,21.37,0,0,0-5.38,0h-9.92a21.51,21.51,0,0,0,0,43h15.66a21.51,21.51,0,1,1,0,43H731.4a21.51,21.51,0,1,1,0-43h95.65a21.51,21.51,0,0,0,0-43H651.75a21.51,21.51,0,1,1,0-43H755.36a21.51,21.51,0,0,0,0-43h-24a21.51,21.51,0,1,1,0-43H861.47a21.51,21.51,0,0,1,0,43H839.12a21.51,21.51,0,0,0,0,43h81.61a21.37,21.37,0,0,0,5.38,0h99.78A21.52,21.52,0,0,1,1047.4,297.9Z"/><path class="cls-3" d="M1220.17,125.83a21.51,21.51,0,0,1-21.51,21.51H1055.87a21.51,21.51,0,0,0,0,43h0a21.51,21.51,0,0,1,0,43H956a21.51,21.51,0,1,1,0-43h19.89a21.51,21.51,0,1,0,0-43H814a21.51,21.51,0,1,1,0-43H956.81a21.51,21.51,0,1,0,0-43h-.35a21.51,21.51,0,1,1,0-43h99.77a21.51,21.51,0,0,1,0,43h-19.47a21.51,21.51,0,1,0,0,43h161.9A21.51,21.51,0,0,1,1220.17,125.83Z"/><path class="cls-3" d="M1226.51,427A21.51,21.51,0,0,0,1248,448.46h.06a21.51,21.51,0,0,1-.06,43h-99.78a21.51,21.51,0,1,1,0-43h19.89a21.51,21.51,0,0,0,0-43h-161.9a21.51,21.51,0,1,1,0-43H1149a21.51,21.51,0,0,0,0-43h-.35a21.51,21.51,0,1,1,0-43h99.77a21.51,21.51,0,1,1,0,43H1228.9a21.51,21.51,0,0,0,0,43H1366v43H1248A21.5,21.5,0,0,0,1226.51,427Z"/><path class="cls-2" d="M826.69,319.41h-5.37a21.29,21.29,0,0,1,5.37,0Z"/><path class="cls-4" d="M1346.78,276.39H1366v43h-19.22a21.51,21.51,0,1,1,0-43Z"/><path class="cls-4" d="M1366,153.62a21.51,21.51,0,0,0,0,30.46v49.29h-78.49a21.29,21.29,0,0,0-5.37,0h-99.78a21.51,21.51,0,1,1,0-43h99.78a21.29,21.29,0,0,0,5.37,0h9.92a21.51,21.51,0,0,0,0-43h-15.66a21.51,21.51,0,0,1,0-43H1366Z"/><path class="cls-4" d="M987.8,729a21.5,21.5,0,0,1-21.51,21.51H866.51a21.29,21.29,0,0,0-5.37,0h-9.92A21.52,21.52,0,0,0,830.08,768H788.6a21.52,21.52,0,0,0-21.14-17.54H592.16a21.51,21.51,0,1,1,0-43h103.6a21.51,21.51,0,0,0,0-43h-24a21.51,21.51,0,0,1,0-43H801.87a21.51,21.51,0,0,1,0,43H779.52a21.51,21.51,0,1,0,0,43h81.62a21.29,21.29,0,0,0,5.37,0h99.78A21.5,21.5,0,0,1,987.8,729Z"/><path class="cls-3" d="M1160.58,556.89a21.5,21.5,0,0,1-21.51,21.5H996.28a21.51,21.51,0,0,0-.06,43h.06a21.51,21.51,0,0,1-.06,43H896.44a21.51,21.51,0,0,1,0-43h19.9a21.51,21.51,0,0,0,0-43H754.43a21.51,21.51,0,1,1,0-43H897.22a21.51,21.51,0,0,0,0-43h-.36a21.51,21.51,0,0,1,0-43h99.78a21.51,21.51,0,0,1,0,43H977.16a21.51,21.51,0,0,0,0,43h161.91A21.5,21.5,0,0,1,1160.58,556.89Z"/><path class="cls-3" d="M1210.29,729a21.5,21.5,0,0,1-21.51,21.51h-19.47A21.5,21.5,0,0,0,1148.17,768H1110.5a21.52,21.52,0,0,0-21.14-17.54H1089a21.51,21.51,0,1,1,0-43h99.77A21.5,21.5,0,0,1,1210.29,729Z"/><path class="cls-2" d="M767.1,750.46h-5.38a21.37,21.37,0,0,1,5.38,0Z"/><path class="cls-2" d="M1300.09,599.9a21.52,21.52,0,0,0,21.51,21.51H1366V750.46h-78.81a21.51,21.51,0,1,1,0-43h22.35a21.51,21.51,0,0,0,0-43h-81.62a21.29,21.29,0,0,0-5.37,0h-99.79a21.51,21.51,0,0,1,0-43h99.79a21.29,21.29,0,0,0,5.37,0h9.92a21.51,21.51,0,0,0,0-43h-15.66a21.51,21.51,0,1,1,0-43H1366v43h-44.4A21.52,21.52,0,0,0,1300.09,599.9Z"/></g></g></svg>