<svg xmlns="http://www.w3.org/2000/svg" viewBox="0 0 273.15 273.16"><defs><style>.cls-1{fill:#10b8bf;}.cls-2{fill:#fff;}.cls-3{opacity:0.25;}</style></defs><title>Asset 10</title><g id="Layer_2" data-name="Layer 2"><g id="Layer_2-2" data-name="Layer 2"><path class="cls-1" d="M104.65,264.89A132.24,132.24,0,0,1,6,156.29H6a130.75,130.75,0,0,1-1.45-17.65v-.13A132.85,132.85,0,0,1,21,72.67h0A130.09,130.09,0,0,1,32.53,55.19,132.16,132.16,0,0,1,168.85,8.34c.62.16,1.23.31,1.84.49a132.22,132.22,0,0,1-66,256.06Z"/><path class="cls-2" d="M105.85,260.55c-47.21-12.09-84.1-50.11-94.18-97.9a123.67,123.67,0,0,1-2.19-37.3A127.13,127.13,0,0,1,22.79,78.86a128.89,128.89,0,0,1,55.88-56C128.77-2.87,191.74,8.33,230.13,49.44c40.08,42.94,45.3,109.54,12.76,158.31-26,39-72.83,60.69-119.38,55.95a128.83,128.83,0,0,1-17.66-3.15c-5.63-1.37-8,7.3-2.4,8.68,49.41,12.09,102.65-4.11,136.22-42.57,40.11-46,44.8-115.24,10.73-166C216.7,10.38,151.81-12.33,94.19,6.67,36.16,25.81-3.13,82.86.2,144a132,132,0,0,0,7.47,37.75,136.87,136.87,0,0,0,76.37,81,139.82,139.82,0,0,0,19.41,6.47C109.07,270.67,111.46,262,105.85,260.55Z"/><g class="cls-3"><path class="cls-2" d="M124.38,142.26c-7.06-2.15-7.36-8.14-5.89-14l4-15.84,9.42-37.63c1.15-4.61,2.23-9.43,7.64-10.81,8.2-2.11,12.05,5.9,10.49,12.56-2.77,11.84-5.9,23.6-8.86,35.4l-4.88,19.5c-1.5,6-4,12.38-11.88,10.83-5.66-1.12-8.08,7.56-2.39,8.68,10.17,2,19.22-3.46,22-13.47,1.47-5.23,2.64-10.56,4-15.84,3.59-14.34,7.33-28.66,10.77-43,2-8.41-.36-17.21-8.38-21.62-10.46-5.77-22.88.25-26.16,11.32-3.71,12.48-6.36,25.39-9.52,38-1.77,7.1-3.61,14.19-5.33,21.3-2.5,10.34,2.1,20.13,12.62,23.33C127.54,152.63,129.91,143.94,124.38,142.26Z"/></g><g class="cls-3"><path class="cls-2" d="M97.31,250.44c-7.06-2.15-7.36-8.14-5.89-14l4-15.84L104.8,183c1.15-4.61,2.23-9.42,7.64-10.81,8.2-2.11,12,5.91,10.49,12.57-2.77,11.83-5.91,23.6-8.86,35.39l-4.88,19.5c-1.5,6-4,12.39-11.88,10.83-5.66-1.11-8.08,7.56-2.39,8.68,10.17,2,19.22-3.46,22-13.46,1.47-5.23,2.64-10.57,4-15.84,3.59-14.35,7.33-28.66,10.77-43,2-8.41-.37-17.21-8.38-21.62-10.46-5.76-22.88.25-26.16,11.32-3.71,12.49-6.36,25.39-9.52,38-1.78,7.1-3.61,14.18-5.33,21.3-2.5,10.33,2.1,20.12,12.62,23.32C100.47,260.81,102.84,252.13,97.31,250.44Z"/></g><g class="cls-3"><path class="cls-2" d="M185.6,109.88c-7-2.15-7.35-8.14-5.88-14l4-15.84L193.1,42.4c1.15-4.61,2.23-9.43,7.63-10.81,8.21-2.11,12.05,5.91,10.5,12.57-2.77,11.83-5.91,23.6-8.86,35.39l-4.88,19.5c-1.5,6-4,12.38-11.89,10.83-5.65-1.11-8.07,7.56-2.39,8.68,10.17,2,19.22-3.46,22-13.47,1.48-5.23,2.65-10.56,4-15.83,3.59-14.35,7.33-28.67,10.77-43.05,2-8.41-.37-17.21-8.38-21.62-10.46-5.76-22.88.25-26.17,11.32-3.7,12.49-6.35,25.39-9.51,38-1.78,7.1-3.61,14.19-5.33,21.31-2.5,10.33,2.1,20.12,12.61,23.32C188.76,120.25,191.14,111.57,185.6,109.88Z"/></g><g class="cls-3"><path class="cls-2" d="M166.1,187.81c-4.55-1.39-7.63-5.29-6.49-9.84l3.11-12.41c1.75-7,3-20.14,13.59-17.62,4.28,1,7.63,5.25,6.56,9.52l-2.94,11.75c-1.85,7.4-2.86,20.77-13.83,18.6-5.66-1.11-8.08,7.56-2.39,8.68,6.93,1.37,13.89-.52,18.45-6.14,2.53-3.11,3.44-6.73,4.39-10.5l3.6-14.38c.71-2.85,1.92-5.95,2.08-8.91.83-15.29-18.91-22.85-29.72-13.49-6.7,5.8-7.64,16.77-9.67,24.9-.89,3.56-2.47,7.48-2.66,11.18-.44,8.25,6.13,15.08,13.53,17.34C169.26,198.19,171.63,189.51,166.1,187.81Z"/></g><g class="cls-3"><path class="cls-2" d="M51.42,219.56c-4.55-1.4-7.62-5.3-6.48-9.85l3.1-12.4c1.75-7,3.05-20.15,13.59-17.63,4.29,1,7.63,5.26,6.57,9.52l-3,11.76c-1.85,7.4-2.86,20.76-13.83,18.6-5.65-1.12-8.08,7.55-2.39,8.68,6.94,1.36,13.9-.53,18.46-6.14,2.52-3.12,3.44-6.74,4.38-10.51l3.6-14.38c.71-2.85,1.93-5.94,2.09-8.9.83-15.3-18.92-22.86-29.73-13.5-6.7,5.8-7.63,16.77-9.67,24.9-.89,3.57-2.46,7.48-2.66,11.19C35.07,219.14,41.63,226,49,228.24,54.58,229.94,57,221.25,51.42,219.56Z"/></g><g class="cls-3"><path class="cls-2" d="M16.48,72.66c0-2,.16-1-.09-.17-.32,1-.52,2.07-.78,3.09L13,86,5.78,114.87c-1.73,6.94-3.56,13.86-5.21,20.82-1.3,5.52.16,11.65.62,17.23.36,4.52,1.27,7.3,5.58,9.9a18.31,18.31,0,0,0,18.64.12c6.34-3.75,8-10.06,9.63-16.6L48.22,93.68c1.69-6.74,3.49-13.46,5.06-20.23,3.23-13.84-7.93-25.46-22-22.6-5.67,1.16-3.27,9.84,2.4,8.68,6.88-1.41,12.27,4.14,11,10.89-.25,1.35-.68,2.69-1,4L38.54,95.27l-12.31,49.2c-.41,1.64-.74,3.33-1.23,4.95-2.24,7.32-10.55,9.28-15.86,3.69l1.32,3.18A127.47,127.47,0,0,0,9.05,139c-.19-1.29-.32,1.38-.13.44.12-.55.27-1.11.42-1.66.61-2.29,1.15-4.61,1.73-6.92l11.3-45.18c1-4,3.11-8.81,3.11-13,0-5.79-9-5.8-9,0Z"/></g><g class="cls-3"><path class="cls-2" d="M233.46,129.18c-4.55-1.39-7.62-5.29-6.48-9.84l3.1-12.41c1.75-7,3-20.14,13.59-17.62,4.29,1,7.63,5.25,6.56,9.52l-2.94,11.75c-1.85,7.4-2.86,20.77-13.83,18.6-5.66-1.11-8.08,7.56-2.39,8.68,6.94,1.37,13.89-.52,18.46-6.14,2.52-3.11,3.43-6.73,4.38-10.5l3.6-14.39c.71-2.84,1.93-5.94,2.09-8.9.83-15.29-18.92-22.85-29.73-13.49-6.7,5.8-7.63,16.76-9.67,24.9-.89,3.56-2.46,7.48-2.66,11.18-.44,8.25,6.13,15.07,13.53,17.34C236.62,139.56,239,130.88,233.46,129.18Z"/></g></g></g></svg>