<svg xmlns="http://www.w3.org/2000/svg" viewBox="0 0 253.97 240.88"><defs><style>.cls-1{fill:#fff;}.cls-2{fill:#16f5ff;}.cls-3{fill:#10b8bf;}</style></defs><title>Asset 2</title><g id="Layer_2" data-name="Layer 2"><g id="Layer_2-2" data-name="Layer 2"><path class="cls-1" d="M188.48,106.74h39.94a1.5,1.5,0,0,0,0-3H188.48a1.5,1.5,0,0,0,0,3Z"/><path class="cls-1" d="M188.48,97.15h39.94a1.5,1.5,0,0,0,0-3H188.48a1.5,1.5,0,0,0,0,3Z"/><path class="cls-1" d="M25.54,106.74H65.47a1.5,1.5,0,0,0,0-3H25.54a1.5,1.5,0,0,0,0,3Z"/><path class="cls-1" d="M25.54,97.15H65.47a1.5,1.5,0,0,0,0-3H25.54a1.5,1.5,0,0,0,0,3Z"/><path class="cls-2" d="M157.52,209.78H99c-12.49,0-21.89-12.42-19.49-25.78L108.78,20.5A21.39,21.39,0,0,1,116.59,7a19.28,19.28,0,0,1,23.87.38,21.57,21.57,0,0,1,7.3,13.17L177,184C179.39,197.36,170,209.78,157.52,209.78Z"/><path class="cls-1" d="M157.52,206.78h-48.2c-7.72,0-15.9,1.1-21.83-5.06-5.35-5.56-5.79-12.78-4.52-19.89l18.25-102L109.94,31c.57-3.16,1.07-6.34,1.7-9.49,1.32-6.58,4.82-12.41,11.48-14.65,8.81-2.95,17.79,2.19,20.77,10.7,3.18,9,3.81,19.57,5.48,28.94L159.67,104l10.27,57.39,3.23,18.07c.8,4.5,1.76,8.76.66,13.38-1.84,7.78-8.23,13.62-16.31,13.91-3.85.13-3.87,6.13,0,6,15.41-.55,24.72-15,22.38-29.57-.44-2.76-1-5.51-1.47-8.25l-9.33-52.15C163,88.63,157.25,54.36,150.75,20.26,148.56,8.72,139.51-.6,127.18,0c-11.61.59-19.39,9.63-21.44,20.51-2.39,12.73-4.56,25.5-6.84,38.25L78,175.86c-.57,3.16-1.3,6.36-1.63,9.57-1.46,13.88,8.53,26.95,22.79,27.35,17.53.48,35.15,0,52.69,0h5.7C161.38,212.78,161.39,206.78,157.52,206.78Z"/><path class="cls-3" d="M235.5,182.47H160.2a15.28,15.28,0,0,1-15.28-15.28V128.31a15.28,15.28,0,0,1,19.51-14.68l75.3,21.7A15.26,15.26,0,0,1,250.78,150v17.18A15.28,15.28,0,0,1,235.5,182.47Z"/><path class="cls-1" d="M235.5,179.47H183.21c-7.46,0-14.94.18-22.39,0-7.22-.18-12.48-5-12.9-12.28-.16-2.73,0-5.51,0-8.24,0-9.83-.11-19.68,0-29.51.08-6.71,4.08-12.75,11.25-13.38,2.69-.24,5.26.69,7.81,1.42l58.35,16.82c7.66,2.21,19.62,3.47,22,12.55,1.32,4.93.41,11,.41,16,0,8.21-2.48,16.16-12.28,16.6-3.84.17-3.87,6.17,0,6,8.36-.38,15.86-5.66,17.78-14.08,1.17-5.14.5-10.95.5-16.17,0-6.17-.09-12-4.35-17-2.86-3.37-6.62-5.08-10.74-6.29-21.12-6.18-42.29-12.18-63.44-18.28-8.45-2.43-17-6-25.24-.46-10.15,6.79-8.09,19.64-8.09,30.18v18.32c0,4.2-.26,8.39,1.37,12.37,4.39,10.78,14.48,11.44,24.36,11.44H235.5C239.36,185.47,239.37,179.47,235.5,179.47Z"/><path class="cls-3" d="M18.45,182.47h75.3A15.28,15.28,0,0,0,109,167.19V128.31a15.28,15.28,0,0,0-19.51-14.68l-75.3,21.7A15.28,15.28,0,0,0,3.17,150v17.18A15.28,15.28,0,0,0,18.45,182.47Z"/><path class="cls-1" d="M18.45,185.47H79.06c7.42,0,17.24,1.44,23.92-2.5,10.9-6.43,9-19.11,9-29.85V134.21c0-4.23.3-8.48-1.25-12.51a18.42,18.42,0,0,0-18.6-11.59A40.84,40.84,0,0,0,84.49,112L19.73,130.62a72.33,72.33,0,0,0-8.3,2.55C3.85,136.34.24,143.48.17,151.39c0,5.68-.4,11.53.07,17.19C1,178.28,9,185,18.45,185.47c3.86.17,3.86-5.83,0-6C3.55,178.8,5.73,160.82,6.17,150.3c.43-10.23,8.74-12.05,16.62-14.32l59.76-17.22c8.08-2.33,18.64-5.63,22.68,5.13,1.24,3.28.8,7.24.8,10.68v16.62c0,8.73,2.62,22.79-7.24,27.22-5.7,2.56-14.56,1.06-20.55,1.06H18.45C14.59,179.47,14.59,185.47,18.45,185.47Z"/><rect class="cls-2" x="198.75" y="80.2" width="17.94" height="71.77" rx="5.62" ry="5.62"/><path class="cls-1" d="M211.08,149c-4,0-8.7.88-9.33-4.11-.53-4.2,0-8.81,0-13V94.72c0-2.54-.74-6.39,0-8.85,1.4-4.66,11.12-3.65,11.94.7.66,3.47,0,7.72,0,11.24v39.64c0,2.28,1.51,11-2.61,11.52-3.79.44-3.84,6.44,0,6,6.69-.78,8.61-5.58,8.61-11.5v-19c0-12.71.62-25.6,0-38.31-.4-8.27-7.42-9.16-14.1-9-6.46.19-9.73,4-9.84,10.27-.26,13.89,0,27.8,0,41.69,0,5.59-.27,11.26,0,16.85.44,9.06,8.4,9,15.33,9C214.94,155,214.94,149,211.08,149Z"/><rect class="cls-2" x="37.26" y="80.2" width="17.94" height="71.77" rx="5.62" ry="5.62"/><path class="cls-1" d="M49.59,149c-4,0-8.7.88-9.33-4.11-.52-4.2,0-8.81,0-13V94.72c0-2.54-.74-6.39,0-8.85,1.41-4.66,11.13-3.65,12,.7.65,3.47,0,7.72,0,11.24v39.64c0,2.28,1.51,11-2.62,11.52-3.79.44-3.83,6.44,0,6,6.7-.78,8.62-5.58,8.62-11.5v-19c0-12.71.62-25.6,0-38.31-.41-8.27-7.43-9.16-14.11-9-6.45.19-9.72,4-9.84,10.27-.25,13.89,0,27.8,0,41.69,0,5.59-.27,11.26,0,16.85.45,9.06,8.41,9,15.33,9C53.45,155,53.46,149,49.59,149Z"/><path class="cls-3" d="M140.46,12.47l-11.9,77.16-12-77.57A18.17,18.17,0,0,1,140.46,12.47Z"/><path class="cls-1" d="M137.57,11.67l-11.9,77.16h5.78l-12-77.57-1.38,3.39c6.24-4.78,14-5.16,20.23-.06,3,2.43,7.23-1.79,4.24-4.24-8.15-6.69-19-7.41-27.5-.88a3.2,3.2,0,0,0-1.38,3.38l12,77.58c.44,2.86,5.34,2.86,5.78,0l11.9-77.16C143.94,9.49,138.16,7.86,137.57,11.67Z"/><path class="cls-1" d="M18.75,170.1a26.34,26.34,0,0,1-1.11-12.67c.32-1.89-2.58-2.7-2.89-.8a29.65,29.65,0,0,0,1.11,14.27c.57,1.84,3.47,1,2.89-.8Z"/><path class="cls-1" d="M17.14,148.82h0l-.74-1.29h0l.44-1.06h0a1.52,1.52,0,0,0,0,2.12,1.55,1.55,0,0,0,2.13,0,1.5,1.5,0,1,0-1.82.23Z"/><path class="cls-1" d="M102.31,210.67v28.76a1.5,1.5,0,0,0,3,0V210.67a1.5,1.5,0,0,0-3,0Z"/><path class="cls-1" d="M100.81,212.27v17.57c0,3.86,6,3.87,6,0V212.27c0-3.86-6-3.87-6,0Z"/><path class="cls-1" d="M150.24,210.67v28.76a1.5,1.5,0,0,0,3,0V210.67a1.5,1.5,0,0,0-3,0Z"/><path class="cls-1" d="M148.74,212.27v17.57c0,3.86,6,3.87,6,0V212.27c0-3.86-6-3.87-6,0Z"/></g></g></svg>