<svg xmlns="http://www.w3.org/2000/svg" viewBox="0 0 220.67 221.04"><defs><style>.cls-1{fill:#666;}.cls-2{fill:#fff;}.cls-3{opacity:0.25;}</style></defs><title>Asset 7</title><g id="Layer_2" data-name="Layer 2"><g id="Layer_2-2" data-name="Layer 2"><path class="cls-1" d="M210.16,75.13a106,106,0,0,1-28.92,114h0a104,104,0,0,1-11.15,8.78L170,198h0a106.51,106.51,0,0,1-51.29,18.12h0a103.44,103.44,0,0,1-16.79,0,105.91,105.91,0,0,1-91.63-70.38c-.17-.48-.34-1-.49-1.45A106,106,0,0,1,210.16,75.13Z"/><path class="cls-2" d="M205.82,76.33a101.5,101.5,0,0,1-10.88,90,98.08,98.08,0,0,1-8.89,11.59,75.33,75.33,0,0,1-9.32,9.22c-2.44,2-4.87,4-7.46,5.88a23.6,23.6,0,0,1-2.38,1.72l1.91-1.09a7.41,7.41,0,0,0-2.48,1.39,143.72,143.72,0,0,1-15,8.21,101.07,101.07,0,0,1-34.55,8.5,102.39,102.39,0,0,1-61.09-15.69C15.57,170.65-1.33,119.15,15.2,74.7,30,35,69.35,8.41,111.54,8.92s80,27.93,94.28,67.41c2,5.41,10.65,3.07,8.68-2.39C200.65,35.53,166.74,7,126.11,1.1,82-5.24,37.25,16.19,14.77,54.75-11.45,99.74-2,159.16,37.28,193.45A111.59,111.59,0,0,0,96,220a110.4,110.4,0,0,0,36.44-1.32c12.57-2.55,26.51-7.33,37-14.94,10-7.27,17.37-12.61,25.42-22.29a113.32,113.32,0,0,0,18.54-31.56,110.9,110.9,0,0,0,1.09-75.95C212.62,68.49,203.92,70.83,205.82,76.33Z"/><g class="cls-3"><path class="cls-2" d="M150.39,149.22c2.14,7.52-5.29,8.92-10.5,10.76l-23.14,8.18L63,187.14c-3.58,1.26-9.59,4.56-13.42,3-5.76-2.28-4.7-9.55.29-11.85,1.48-.68,3.15-1.11,4.69-1.65l51-18,27.82-9.82c6-2.11,14-6.69,17.42,1.46,2.26,5.32,10,.74,7.77-4.54a15.49,15.49,0,0,0-18.9-8.67c-1.34.39-2.66.94-4,1.41l-24.44,8.63L52.18,168c-7.68,2.71-15.43,6.38-15.58,16-.2,12.18,11.83,17.81,22.14,14.16l55-19.42,30.06-10.62c1.82-.64,3.67-1.24,5.48-1.94,8-3.09,12.17-11,9.79-19.37C157.48,141.26,148.79,143.63,150.39,149.22Z"/></g><g class="cls-3"><path class="cls-2" d="M78,42.61c2.1,7.38-4.87,8.78-10,10.6L46,61,22.64,69.24c-4,1.42-8.85,4-13.22,3.88l4.34,5.69A107.9,107.9,0,0,1,26.24,53.4l-2.68,2.06L50.38,46,66,40.48c5-1.76,9.86-3,12.52,3.21,2.25,5.31,10,.73,7.77-4.55C82.5,30.32,73.35,28.35,65,31.28L42.85,39.12c-6.78,2.4-13.6,4.73-20.35,7.2-3.73,1.36-5.26,4.28-7.28,7.68A115.92,115.92,0,0,0,5.09,76.42c-1,2.85,1.56,5.63,4.33,5.7,5.8.13,11.71-2.83,17.06-4.72L53.05,68l21.4-7.56c8.88-3.14,15.11-10.22,12.25-20.24C85.12,34.66,76.43,37,78,42.61Z"/></g><g class="cls-3"><path class="cls-2" d="M118.55,116.29c2.63,9.24-12.36,11.42-18.45,13.57L71.15,140.09c-3.28,1.16-6.84,2.81-10,.14-4.85-4.15-1.1-9.66,3.56-11.32q13.7-4.87,27.41-9.68L107.1,114c4.84-1.71,9.39-2.51,11.9,3.41,2.26,5.32,10,.73,7.77-4.54-3.29-7.77-11.56-10.89-19.38-8.5-4.3,1.32-8.53,3-12.78,4.51-11.16,4-22.42,7.68-33.51,11.84-7.12,2.68-12.06,9-10.91,16.94,1.4,9.54,10.93,15,20,12.36,10.17-2.95,20.13-7.12,30.12-10.64,11.92-4.22,31.93-8,27-25.44C125.64,108.33,117,110.7,118.55,116.29Z"/></g><g class="cls-3"><path class="cls-2" d="M202.84,86.51c2.63,9.24-12.36,11.42-18.45,13.57l-28.94,10.23c-3.29,1.16-6.85,2.82-10,.14-4.85-4.15-1.1-9.66,3.56-11.32,9.13-3.25,18.28-6.45,27.41-9.68l14.95-5.28c4.84-1.71,9.39-2.5,11.9,3.41,2.26,5.32,10,.74,7.78-4.54-3.3-7.76-11.56-10.89-19.39-8.5-4.3,1.32-8.53,3-12.77,4.52-11.17,3.94-22.43,7.67-33.52,11.83-7.12,2.68-12.06,9-10.91,16.94,1.4,9.54,10.93,15,20,12.36,10.17-3,20.14-7.11,30.12-10.64,11.93-4.21,31.93-8,27-25.43C209.93,78.56,201.25,80.92,202.84,86.51Z"/></g><g class="cls-3"><path class="cls-2" d="M69.81,89.69c2.64,9.24-12.36,11.42-18.44,13.57L22.42,113.49c-3.29,1.16-6.85,2.82-10,.14C7.6,109.48,11.34,104,16,102.31q13.69-4.86,27.4-9.68l15-5.28c4.84-1.71,9.39-2.5,11.91,3.41,2.25,5.32,10,.74,7.77-4.54-3.3-7.76-11.56-10.89-19.38-8.5-4.31,1.32-8.54,3-12.78,4.52-11.16,3.94-22.43,7.67-33.51,11.83C5.24,96.75.3,103.12,1.46,111c1.39,9.54,10.92,15,20,12.36,10.17-3,20.14-7.11,30.13-10.64,11.92-4.21,31.92-8,26.95-25.43C76.91,81.74,68.22,84.1,69.81,89.69Z"/></g><g class="cls-3"><path class="cls-2" d="M130.54,68.24c1.06,3.8,0,6.69-3.48,7.92l-9.44,3.33c-5,1.78-15.38,7-16.83-2a6.18,6.18,0,0,1,.73-4c.33-.62,2.39-2.8.72-1.68a12.2,12.2,0,0,1,2.4-.85l9.45-3.33c5.94-2.1,13.49-6.38,16.9,1.65,2.26,5.31,10,.73,7.77-4.55-4-9.4-13.47-10.59-22-7.56l-11.46,4c-2.5.88-5.3,1.54-7.47,3.09-9.93,7.11-6.74,23.11,4.58,26.73,7.21,2.3,15.14-2,21.83-4.39,2.82-1,6.16-1.68,8.77-3.17,6.11-3.48,8-11.32,6.24-17.67C137.67,60.28,129,62.64,130.54,68.24Z"/></g><g class="cls-3"><path class="cls-2" d="M202.5,130.85c1.06,3.79,0,6.69-3.48,7.92l-9.43,3.33c-5,1.78-15.38,6.94-16.84-2a6.26,6.26,0,0,1,.73-4c.34-.62,2.4-2.79.72-1.67a11.23,11.23,0,0,1,2.4-.85l9.45-3.34c5.94-2.1,13.5-6.37,16.9,1.65,2.26,5.32,10,.73,7.78-4.54-4-9.4-13.47-10.59-22-7.56l-11.45,4c-2.51.89-5.31,1.54-7.47,3.1-9.94,7.11-6.74,23.11,4.58,26.72,7.21,2.3,15.14-2,21.83-4.39,2.81-1,6.15-1.68,8.77-3.17,6.1-3.47,8-11.31,6.23-17.67C209.63,122.88,200.94,125.25,202.5,130.85Z"/></g><g class="cls-3"><path class="cls-2" d="M105.09,213c-7.56-7.52,2.65-11.17,8.12-13.1l24.32-8.6,24-8.48c2.06-.73,4.11-1.51,6.19-2.19,5.13-1.68,10.39,1.34,9.15,7.38l3.14-3.14c-2.48.88-4.81,3.38-6.84,5l-4.33,3.41a12.81,12.81,0,0,0-1.48,1.16c-1.22,1.31,1.07-1,1.39-.7-.82-.74-11.57,4.09-12.6,4.45-12.73,4.5-25.59,8.75-38.23,13.51-1,.37,1.66.17-.32,0-1.77-.15-3.63,0-5.41,0H101.9c-5.79,0-5.8,9,0,9s12.41,1,18-.18c4.94-1.07,9.93-3.51,14.68-5.19l25.19-8.9c4.32-1.52,9.58-2.58,13.39-5.18,2.73-1.87,5.26-4.14,7.86-6.18.39-.32,3.24-2.06,3.21-2.53-.09-1.39-2.77,2.2-1.28.8.38-.36,1-.52,1.45-.93,1.23-1.23,1.51-3.12,1.64-4.77.91-11.41-10.05-18.95-20.5-15.74-13.81,4.24-27.36,9.67-41,14.48-6.47,2.28-13,4.46-19.43,6.86-11.13,4.15-15.34,17.27-6.43,26.14C102.83,223.41,109.2,217,105.09,213Z"/></g><g class="cls-3"><path class="cls-2" d="M36.1,146.15c.73,2.64.39,5.9-1.94,7.37-1.67,1.06-4.26,1.51-6.11,2.16L17.4,159.44l5.08,2.07a105.3,105.3,0,0,1-8.37-18.41L11,148.64l12-4.26c5.28-1.87,10.67-3.9,13.53,2.84,2.26,5.32,10,.74,7.77-4.54-6.78-16-24.36-6.74-35.74-2.72-2.19.77-4,3.1-3.14,5.53a117.21,117.21,0,0,0,9.27,20.56,4.55,4.55,0,0,0,5.09,2.07l15.39-5.44c8-2.83,11.89-10.66,9.58-18.92C43.22,138.18,34.54,140.55,36.1,146.15Z"/></g></g></g></svg>